# xmcd
# 
# Track frame offsets:
#     150
#     20154
#     60530
#     93305
#     135282
#     171723
#     212006
# 
# Disc length: 2843
# 
# Revision: 0
# Processed by: cddbd v1.5.2PL0 Copyright (c) Steve Scherf et al.
# Submitted via: fre:ac v1.0.17
# 
DISCID=5f0b1907
DTITLE=Matt Morris - The Unemployed Millionaire
DYEAR=2009
DGENRE=AudioBook
TTITLE0=101
TTITLE1=102
TTITLE2=103
TTITLE3=104
TTITLE4=105
TTITLE5=106
TTITLE6=107
EXTD=
EXTT0=
EXTT1=
EXTT2=
EXTT3=
EXTT4=
EXTT5=
EXTT6=
PLAYORDER=
